<svg version="1.2" xmlns="http://www.w3.org/2000/svg" viewBox="0 0 2000 1216" width="2000" height="1216">
	<MetaInfo xmlns="http://www.prognoz.ru">
		<Geo>
			<GeoItem X="0" Y="0" Latitude="90" Longitude="-180" />
			<GeoItem X="2000" Y="1216" Latitude="-90" Longitude="180" />
		</Geo>
	</MetaInfo>
	<title>blue</title>
	<style>
		.s0 { fill: #6633cc } 
	</style>
	<path id="Path 0" fill-rule="evenodd" class="s0" d="m1666 120l13 3l6 9v8l-14 17v4l27-2l8 7h5l6-4l1-6l7-1l7 8l-2 13l2 4l16-5l12 4v-5l10-9l5 6l16 2l4 11l5 4l13-3l4 3l1 6l12-2l4 4l10 1l4 8h4l-1-9l3-4h10l30 20l4 7l-3 9l-5 3l-9-8h-7l-7 6v11l6 4l20 4l5 18l18 13l6 20l3 2l-4 20l5 9l-1 8l5 4l-1 9l8 7v5l-7 2l-3 6h3v5l9 4v10l5 5l2 9l-3 13l9 10l9 6h9l5 7l-4 6l1 9l-6 9l1 15l8 13l-3 5l-5-10l-17-18l-3-9l-15-18l-6-13l5-23l-3-12l-16-3l-13 12l1 17l5 8l-8 7v11l-5 5l-1 13l7 3l8 11l-5 4v13l7 4l3 14l11-1l5-9l10 1l9 5l2 5l-2 5l-3 3h-9l-5 5l1 24l8 10l6 34l5 2l7-7h4l3 9l-10 28l-5 1l-16-6l-5-11h-6l-8 6l-1 17l-12 12l-2 10l-15 14v6l6 8l-2 4l-10 5l2 11l-8 19l-13-3l-7-10l-8-2v-17l-13 1l-15-6l-2-6l6-8v-6l-3-3l-14-1l-1-10l-6-6l1-5l7-6l-4-7h-11l-5-8l-16-6l-10 3l-16-3l-17 4l-9-7l-9-1l-4 7l-5 1l-5-5l4-20h-4l-5 8l-3 13l-14-3l-9 6l-10-4l-7 8v9l-13 2l-7 9l-13-3l-6 7l-12-1l-6 5l-6-5h-17v3l-8 5l-5-3l-13 1l-3-6l-11-3l1-11l-11-12l-3-10l-19-5l-5-11l18-13l21-6l8-7l13-1l10-9l12-2l11-16l14-8v-5l-19 11l-6 13l-18 5l-6 7l-13 2l-1-14h-4l1 14l-3 5l-46 18l-12-18l-13 5l-6-6l-12-1l-4-9h-26l-11-7v-6h-3l-1 4l-2-7l-6 4l-9-3l-2-5l-6-3v-3l5-2v-4l-5-1l-1-7l1-5l6-1l-1-6h-3l-8 7l2 25l-2 7l-7 3l-2 6l-7 5l-21 6l-4 9l-8 1l-8-4l-3 4h-10l-5 8l-9 3l-2 9l-9 4l-1 12l-10 1l-8 6l-1 16l-3 4l-19-1l-3-6l-11 2l-12 19l-17-6h-9l-11 10l-9 1l-6-9l-11 5l-5-3l-2-8l-4-3l-10 3l-5-5h-7l-9 7l-3-4l-25 2l-12-3l-7 6l-20-8v6l-4 3l-4-6l-7-2l-2-10l-4 1l-4-4l1-7l5-4l8 1l7-10l12 2l10-10l10 1l12 8h17l7-3l1-4l13 1l2-7l10-12l5 2l23-17l8-10l11-24l7-7h9l22 12l17-2l10-12l-1-21l8-5l7-11l8-4v-3l-12 3l-17 12h-4l-8-8l-21 2l-3-3h-7l-3 4l-8 2l-8 14l-1 25l-10 22l-12 14l-16 6l-7-2l-3-3l1-13l-4-7l-7-5h-6l-12-11l-2-8h-6l-6-7l-10-2v-10l-11-24l-7-5l1-11l4-6l-4-14l8-3l-1-14l15-13l-2-15l14-8l4-17l8-5v-5l4-2l-1-4l-5-1l6-10l13 1v-5l4-3l8 6l7-4l8 1l7-8l9 6h11l4 3l7-3l3 3l13-2l4 2l6-4l5-10l11 5h9l8-7l7 5l22 4l29 21l-1 14l12 8l-2 14l16 4v7l-3 2l1 14l12-1l1 4l5-1l-6-11l8-8l9 5l7-9h3l9 8l-4 6l-11-2l1 4l-9 1v3l8 3l3-6h6l6 8l-10 3l1 4l8 3l-1 2l10-5l-6-2l5-7l-3-6l-5-1l5-8l6-2l-3-1l1-4l7-5l4 2l2-2l4 6l16-5v4l5 2l1-6l-4-10l4-5h9l4-3l-2-11l3-6l4-1l5 8l15 6l12-6h8l2-14l15-3l-6-24l5-2v-8l7-8l-24-15l-2-14l-11-15l-4-1l-7 6l1 13l4 10l8-3l2 8l7 4v3l-10 2l-4 4l-4-1l-2 5l-8 2l-2 5l-8-2l-15 9l-3 6l-17 3l-3 5l-13 5l-1 6l7 6l-2 8l-23 17l-5-10l-11-2l-1-7l3-3l-2-6l-30-9l-10-7l-7 1l-1-4l-9-3l3-6l13-4l2-8l-4-5l-5-3l-21-1l-28 2l-3-4l-8 1l-8-7l-1-10l-6-6l4-8l-7-3l-2-8v-9h3l-3-7l3-3l7-1l3-6l7 2l1-7l20 3l4-4l12 1l7-6l21 3l4-4l15-4h12l8 4l6-6l22 5l3-6h8l20 6l15 12h6l10-7l14 6l1 8l9 5v8l5 3l1-11l7-6l2-6l-7-13l2-29l14-3l15 11l1 11l-6 3l-10-3l-1 6l1 9l5 5h6l-2-8l3-3l8 2l1-7l6-3l-1-13l3-3l5 3l1 5h4l10-10l12 2l8-4l6 1l4-8l5 1l6 8h4l-3-21l8-14l4 1l-1 13l3 11h3l4-20l7 6l3-7l8 1l-2-8l17-7l-1-7l13-10l-3-5l16-6l10 2l9-3v-4zm105 139l-1 3l22-3l13 4l16 17l11 5l-2 9l-5 6l-26 9l-6 6l-6 29l-33 7l-3 4h-21l-5 30l-6 8l-12 4l-16 11l-4 6v7l9 9h4v-3l8 2l10-7l10-2l6-7l7 3l1-5l5-1l2 6h3l6-9l10-2l-16 17l-2 11l2 3l-5 2l-1 7l-9 7l-4 8l-9-1l-12 6l-1 11l8 13h5l9-7l19-1l3-6l7-1l11-13l5-1l8 10v15l5 13h3l-4-29l-10-14l18-13l1-10l10-23l3 13l6 4l-3 5l2 10l10 5l6 7h7l-21-17l3-13l-8-6l-2-11l7-14l10-10l21-11l7-17l-5-14h-8l-3 10l-12 8l-6 1l-3-3l7-10l10-4v-7l11-10v-5l-11 2l-15 12l-25 6l-2-4l2-18l10-7l19-6l7-9l2-13l-14-7l-15-16l-25-4zm-60 18l1 12l-3 6l-11 8l-13-1l-17-9h-3v3l19 10h17l9-6l5-8v-15l4-4l-2-3zm-107 97l6 3l7 12l1 16l-2 7l-3 1v8l6 18l1 18l-3 5l-9 1l-5 14l6-2l3-9h9l3-7l-1-22l-6-17l5-13l-1-17l-7-16l-11-5zm-77 13l6 13l-2 17l-2 6l-10 8v6l-6 1l-10 29l-5-7l-6-2l-23 3l-18-6l-19 14l-3 8l-10 4l-1 11h4l2-10l7-1l19-21l20 5l24-3l7 9v11h3l2 7h6l-7-11l3-18l8-16l16 4v-9l4-5v-3l-6-3l6-14l1-15l-6-16h-3zm-150 30h5l1 3v7l-12 9l1 4l7-5l3 1l5-6l-1-8l4-1l-6-5l3-9l-19-2zm-33 25l7 7l5 14h4l5 15l-8 9l9 7l1 8l5-3l-1-7l-5-1l-3-6l5-4l-4-8l3-9l-6-2l5-5l-2-7l8-3l-1-5l-6 3l-9-3l-5 2l-4-6zm262 69l-10 12l5 1l9-11v-18l-5-1zm-78 36l4-1l4-11l-1-18l-5-1zm166-13l4 4l12-6v-4l-6-5l-11-3zm-182 561l-18-11l-23-4l-17-12l-25-28l-8-1l2-8l-6-11l8-19l-3-10l8-10l8-25l10 16h9l4-1l11-14l9-4l8 22l5-1v-4l-7-20l-3-2l-13 2l-18 18l-4-1l-8-18l-16 2l-8-3l-4-5l3-5l9 4l16-1l4-5l8-2l1-6l-7-3l-8-9h-4l-5-7l-15-7v8l7 8v5l8 5l-2 5l-5 1l-31-28l-11-5l-5 1l-5-6l-26-13l-8-10l1-14l-16 4l-7-7l-5-27l4-12l6 1l5 7l16 2l3-10l8-9l20-11l-1-8l5-20l17-2v-3l-10-5l35-9l1-4l7 1l5-10l15-4l12-8l14 3l9-3l15 2l5-2l3-6l8-1l6 4l6 11l8 1l7-3l10 11l17-4l14 16l8-1l12-13l20 5l-6 23l7-5l6-17l14 1l6-8h4l4 9l7 3l30-7l8 8l8 1l9 13l10 1l5-5l7-1l4 5l-1 13l13-1l6 8l8 3l4 12l-6 4v4l-13 3l-1 4h18l2 14l-11 15l1 10l-9 9l-7 26l11 24h5l1 6l10-2l12 13l1 5l-5 4l1 5l7-5h9l2 4l5-1l4 3l1 3l-6 10l5 21l-4 17l9 9l-2 19l6 8l-4 13l-22 2l-8-5h-8l-10 16l-14-3l-8 11l-9-5h-7l-4 5l-8 2l-8-8h-4l-8 8l-1 11l-14-2l-3 11l-4 2l-14-5l-7-9l-11 2l-10-9l6-10l7-26l-4-13l-6-5l-29-1l-9-4l-1 4l5 4h18l17 4l4 13l-7 8l-1 13l-6 5l-12-2l1 6l-8 2l-9 9l1 7l-6 5l-9-2l-1-4l-5-2l-27-7l-7 3l-4 12l-20-1l-7 7zm-106-306l12 10l-3 14h5l2-8l-3-11l-9-6l-1-6h-4zm-1353 164l13-11l-1-10l-7-2l4-6v-8l9 4l8-1l10-22l-1-9l20 8l6-16l10-3l10-13l9-2l11-8l9 7l9 26l9 3l14 18l1 9l-5 14l2 12l10 8l9 24l-20 8l-5-20l-23-4l-1 6l-6 1l-8-9l-12-1l-3 4l-12-3l-12 11l-10-3l-4 17h-9l-2 6h-9l-6-8l2-12l-9-10l-10-4zm970-826l18 3l20-1l20 6l24-2l28 12l4 12l-20 22l-26-1l-11 6l-7-2l-8 10l-30 7l-12 7l-10 8l-7 24l-39 28l-20 23l1 10l6 7v8l-8 7l1 13l-9 13v14l6 10l-13 15l13 8v12l7 14l-3 9l7 8l-3 9l5 5v24l-4 8l-45 42l-7 1l-11 8l-48 2l-3-3l-7 1l-9-6l-15 1l-6-3l-15 1v7l-8 1l-14-5l-8-8l4-21l-10-13l3-15l-5-5l-10 1l-9-4l1-16l16-20l27 5l9-8v-11l-4-5l4-10v-12l-5-1l2-9l-6-10l1-7l5-10l15-14l3-10l19-10l5-6l1-13l-4-7l5-7l3-18l-1-9l-12-13l-4-12v-25l-8 1v-5l6-13l14-15l13-7l5-17l9-7l1-6l22 3l12-6l14 7v10l-6 5l-10 1l-9 18l8 4l-4 22l6 6l-1 13l9 4h18l4-2l-2-15l3-10l9-17l15-14l13-1l-2-11l3-7l29-12l10 1l14-8zm-560 3l3 5h7v12l15 14v9l-5 12l-18 17l-8 17v11l-4 4l-12 3l-7-15l1-16l10-19l9-9l-1-9l5-14h-5l1-6l-3-2l4-3l-2-6h5zm-91 59l14 4l1 4l14-3l5 4v20l-5 4h-6v6l-4 4h-6v3l5 10v9l18 15v15l-5 2l-12-8l-16-4l-4 7l2 14l-5 3l-5-5l-3-18l-22-16h-10l-18 8l-8 10l7 8l-3 13l9 4l-2 6h-5v9l9 6l-2 8l9 7l4 8l18 7l12 11l16 28l-5 11l-11 2l-21-9l-45-53h-3v11l-3 2l-14-33l1-14l8-2l7-29l12-5v-9l8-7v-4l-13-1l-3-4l12-1l11-11l-1-5l13-9l27-27l5-2l3 2zm119 37l13 5l4 6l-3 3l-16-5l-2-4zm-247 1l9 6l17 4l7 21l-5 2l-5-4v3l-6 1l-1 5l3 2l-8 1l-5 27h-3l-3 7l-12-2l1 8l-5 1l-3 10l-7-2l-1-13h-3l-10 48l-7 14l-6 3l-8-5l-1 7l-9 14l-3-27l2-60l-4-2l2-7l7-1l2 6l5-4l-2-16l1-7h3l-1-10l6 1l1-3l-3-4l1-5l6-1l4-5l9 1l2-4l19 3zm218 2l2 2l-2 37l-9 19l-2 17l-18 25l-10-4v-8l7-10l3-38l9-5l8-21zm134 20v-4l8-5l6 10l-5 2zm0 0l3 7l-10 4l-6-1v-5l-4 2l2-7l10-6zm-78-4h4l1 3l5-2l6 5l4 5l-1 4l6 6l-13 4l-3-12l-11 1l-5-4zm-41 10h5v4l5 3l-1 4l-10 5l-4-6h-6zm33 13h4l4 7l-12-1zm932 2l11 16h-9zm-886 1l7 8l-10 2l2 8l-2 2l-7 1v-4h-4l-1-3l1-3l9 1l-1-5zm36 8l11 9v3l-16 2l-3-6zm-111 8l7 6l-13 1v-4zm25 2l9 3l1 5l-4 7l-3-2l1-4h-7l-1-4zm32 3l4 1v5h6l-9 5v-5h-3zm-15 3l1 3l6 1l-9 6l-3-4zm-110 1h4l4 5l-2 6l-6-1l-3-3zm335 0l12 6l18 2l2 5l-6 16l-9 6l-11 18l-7 1l-12-14l-4-20zm-412 1l6 2l1 10l5 6h6l6-7l8 9l-4 4l-8-3h-18l-3-3l6-8l-11-4zm761 4l4 8l11-7l4 8l-8 1l-2 7l-9 1l-4-2l5-6l-5-8zm35 3l9 9l-10 3v-4l-4-1zm-750 1l4 5h4l1 4l-3 3l-12-3zm778 1l9 3l-2 9l-6 3l4 8l5 2l-2 4l-9 1l-4-7l-16-3zm-617 1l13 7l1 9l7-2l-3 12l-6 5l1 6l7 1v-3l7-2l3 6l8-1l6-5l1-9l1 8h3l3-11l2 4l-3 1v6l5 5l1 8l5 4l-6 3l1 5h5l10 11l7 2l5 10l6 2v10l-12 5l-4 6l-21 5l-14-3l-4 7l-7 2l-5 6v4h5l5-6l10-4l2 4l-2 8l4 9l7 5l7-1v5l-11 1l-3 3l-1 6l-3-7l5-1l1-5l-14 1l-3-5v-11h-4l-6 2l-1 6l3 1v7l4 1l-6 3l-24-3l-11 7l-9 1l2 8h-14l-5 3l4-11l-1-6l11 1l-4-8l-16-2l-3-12l-10-8h-5l-10 7h-7l-13-6l-10 3l-6-2l-20-18l-13-22v-6l7-10v-8l7-7l20-12l16 1l4 14l10-1l18 11l4 6l16 2l3 7l-3 7l5 11l4 2l1 5l6-1l5-7l-4-18l6-11l7-4l-3-20l-4-5l13 7l5-2l-2-6l3-5h-4v-5l-6-1v-20l8 1zm-40 6l8 8l-3 5l-6 2l-5-2l-1-8zm128 3l11 13l-16 1l-3-5zm-163 2l13 11l-15 3l-2-4h-4l2-6zm651 3h6l5 9l-6 4l-9-2l-2-5zm-721 4l8 4l-1 6l5 5l-1 5l-12-3l5-8l-11-2h-3v4l3 4l-10 4l-14 1l-7-4l8-10l7 3l6-5l12 2zm692 2l11 7l-4 5l-10-3l-2-3zm-745 1l8 8l-3 2l-10-2zm304 4l10 5l1 5l-20 6l-2 6h-12l6-4l-2-6h3l5-8l6 3zm-149 1l2 1l-2 4l4 4l-1 9l-13-2l-4-4l3-9zm-131 16h4l5 7l-2 2l-10-2zm14 8l9 10l-9 5l-5-1l-3-7zm-123 3l6 4l-1 6l6 3v12l4 5l-12 40l14 13l15 32l9 9l3 6l-1 11l5 4h7l-9 22l-6 2l-1 7l5 6l23 3l-4-12l5-5l8 2v-3l7-4l-1 16l7 7v22l3 3l36 10h14l6 6l19 3l5 8l12 7l2 8l14 8l4 10l9 6l1 23l8 8l-6 18l4 35l-8 19l-6 3l-3 15l4 5l-1 4l15 20l-12 6l-2 10l25 28l-1 14l-8-5l-9-1l-4 4h-5l-3 9h-8l-3 3l-4 16l-3 2l2 15l-3 6l3 4l-3 1l-6-7l1-6h-4l-6 22l-15-8l-13-13l1-10l9-10l-4-1l-9 9l1 18l26 22l-1 5l4 8l-6 7v5l3 10l19 8l9 14l4 1l-4 8l-13-4l-26-22h-17l-7 2l-7 8l-8 2l-1 4l-9 5l-5 7l-7-1l-1 3l-3-3l-8 1l-1-6l-8-2l-5-11h-4l1 5l-10-2l-3 3l1 5h9l2 6l10-1v3h-13l-11-7l3 9l-10 2l-3-4h-6l-9 8l-1 7l-6 4l-1 8l-5-7l-19 1l-5 7l-7 1l1 7l-8 6l-4-7l-20-10l3-10l4-3h22l1-4l5-2l8-27l8-5l11 2l7-19l11-2l16-16l4-14l-15 2l-9-4l-3-3l3-6l-6 1l-10-5l-2-7l2-5l21-7l10 5l14 2l4-4l-1-6l-14-6l-29-2l-1 5l-8 6l-4 13l-3-14l3-8l4-2v-6l-3-6l-7-1l20-17v-4h-4l1-6h-5l-12 11l-1-40l-10-11l-4 2l-7-7h-10l-1 10l-19 11l-4-2l5-6l1-12l-5 1l-12 14l1 12l-18 21l-8 5l-5 10l-10-4l-15 7l1-5l8-5h9v-4l11-7l7-12v-10l-10 1v3l-6-4l-11 2l-1-12l-6-2v4l-6 2l-4 9l-4-2l2-8l5-1l-2-6l2-8l-8-5l-3-9l5-8l13-5l2-5l11-5v-8l-3-2l2-7l-6 1l-4 9l-4-5l-15 1l-11-18l19-13l7 9h9v-5h8l9 12v7l5 4l9-1l5 13h26l5-7l-10 4l-19-1l-6-14l-8 2l-3-3l-1-13l-4-6l-13-2l-2-4l-10-2l-5-10l-14-11l4-7l13-3l9-21l17-5l9-11l5 2l5-5l2 3l-3 7h7v-5h3l2 4l10-1l5 6l18 3l18-4l7-7l6 8l18 13l-13 14l4 20l-12 12l-7 29l9 15l6-1l2 4h7l-3-9l1-33l17-13l8-19l15-18l4-10h-7l-4 10l-15 13l-3 9l-2 2l-3-2l6-12l9-8l-1-8h6l10-17l-4 1l-12-6l-4-9l-9-1l-4-12l-9-7l6-8l-6-4l-1-14l5 2l1 4l7-4l5 10l11 4l9-1l1-5l6-2l19 8l2-21l-16-10h-7l-5 3l-1 6h-3l-6-4l2-10l-9-1l-8-7l-15 2l-13-4l-12 5l-8-1l-3 8l5 6l-1 5l-8 3l-12-1l-7 13l1 4l6-2l1 2l-9 4l8 19l-6 8h-7l-19-21l-19-5l7-17l5-5l5 1v-17l-3-4l1-5l-6-7l-4-18l-5-3l-5 3l-5-10l1-9l15-4l4-10l-10-1l-2-5l-10-5l9-8l12 6l-1-5l-8-6l3-7l15-1l11 13l22-44l10-5l15-21l13-10zm133 374v6h-13l-9 6h-9l-5 8l-14-9h-7l-1 15l-8-7h-5l-1 6l2 9l9 3l4-2l3 4l17-5l6 1l-1 14l8-14l-1-7l7 1l1-3l7 1l3 11l6-4l4 6l6-3l3-9l1 12l4 5l6-1l2-9l-3-1v-32l-6-1l-1 4l-5-8l-5-1zm-31 96l-35 1l-5 4l-6-5h-5v3l7 6h6l5-4l29 2l8-7l3-16l-4-2zm285-469h4l5 6l-4 1l3 6l-10 2l-3-9zm18 21l13 14l-1 3l-9 2l-12-8l2-7zm88 5l9 3l1 8l-6 5l-7-2l-2-10zm-109 7l9 6l-4 4h-6l-2-5zm-8 14l6 5l-2 4l-4-1l4 9l-7 3l-10-3l4-6l-1-4zm0 26l12 4l5 7l-5 2l-12-2v-4l-5 1zm572 65h6l3 4l-13 1zm145 95l1-5l-4-4l10-6v-4l-14 3l-6-5l2-5l5-2v-4l16-12l4-10l4 7h6l8 5l6-1l7 13h5l-2 12l7 5l-1 8l-10 4l-7-4l4-8l-4-11l4-6l-10 2v-3l-6-1l2-2l-2-2l-2 5l8 8l-9 4l-3-4l-7 1l6 12l-6 4v5l5 1l7-7l8 9l-10 4l-8-5zm-836-47l26 4l13 16l-1 6l4 11l8 6v5l6 6l-16-6l-5 5v6l7 5v4l-9 7l-6-3l2 8l-3 3l-21 4l-8 14h-5l-3-6l-5-1l-8-14h-7l-1-7l25-23v-11h-10l-2-6l10-7l1-21zm273 3h19l24 13l10-1l4 3l12-7l11 1l15-5l11 5l10 15l8-4l5 5l28 3l12 9h9l7-4h11l4 3l-9 15l11 11l-1 5l-7-1l-10 6l-13 1l-13 17l-1 8h13l6 3l24 23l-4 9l-12 10l1 31l7 25l17 3l1 7l-8 8l-1 11l-11 5l-10 11l-3 15l-5 3l-7-1l-1 4l-5 2l3 14l11 1l4 4l5-3l14 1l3 4v13h3l3-23l4-1l8 11l8-1l20-12l4-9l14-11h8l1-4l12 1l5-10l23-5l4-10l-4-9l9-4l-1-4h17v4l4-1l4 4l1 8l11-5l5 4l9-3l4 8l13 2l3 9h6l3-6h11l4 8l8 4v7l4 6l-8 2l1 14l-3 10l8 3l-3 9l17 21l2 25l-8 7l2 11l3 2l-3 5v13l4 2v4l-3 2l-2 11l-7 4v4l3 12l14 15l-3 6l3 8l-2 11l5 4l1 9l-12 2l-6 5l-12-5l-8 10l-27 2l-6 12l-7-3l-9 1l-5 11l-15 3l-25 11l-4-1l-4-7l-17 7l-1-15l-7-1l-9 7l-13-11l-3-10l-10 1l-5 12h-8l-5-3l-14 2l-8-10l-15 8l-10-5l-6-9l-9-3l-17 1l-11-3l-3 4h-6l4-14l32-25l2-11l7 2l4-3l7 3l-4-7l-16 1l-4 12l-5 2l-2 6l-27 18l-3 12h-7l-6 5l-6-4l-3-9h-5l-8-6l-17-1l1 6l-5 2l-6-13l-10-1l-10-7l-9 3l-12-1l-16-12l-4-6l4-17l-12-10l-17-6l-11-13l-4-11l-10-6l2-6l4-5l7-2l1-5l5 1l7-5l13 1l5-6l10-4l8 8l3 12l16 12l-1 12l30 18h5l12-9l8-19l-3-23l-13-12l-8-18l4-5l3-15l7-7l7-2l6 2l5 8l6 1l7 7h8l10-6l-3-26l-17-27l-19-8l-26-5l-25-25l-12-8l-20-4l-52-23l-2-12l-9-5l-20 2l-4-11l7-21l1-16l-4-8l-30-3l-15-14l-7-15v-8l16-12l33-3l20 3l11-5l10-8l20-34l9-8zm330 253l2 3l5-4l6 7l7-5l-18-3zm-34 27l-13-1l-24 6l-15 13v4l6 6l6-1l6 9h3l-3-13l16 2l6 11v7l-9 8l-1 5l11 1l1-5l5 3l5-9l1-15l7-5l-2-21l5-8l3 1l1-5h4l4-10l9-6v-4h-6zm87-11v4h11v4l5 2l1 5l-5 4v8l11 5l-1 6l-11 6v5l8 8v20l-2 7l-4 2v6l8 4l1 5l-3 2l-11-2l-6 7l-2 20l7 13l5 3l1 7l-16 20l6 1l4-10l9-7v-13l-11-11l-1-10l3-2l2-10l17-5l-1-10l-8-4l4-4l-1-6l4-6l-1-19l-8-10l12-7l-1-8l-10-7l6-7l-1-12l-5-5l-8-1zm-181 43l-1 13l3 5l19 7l3-3l-20-7l-1-16l-3-9h-3zm13 69l-3 13l10 5l-9 17l8 4l4 10h3v-9l-9-6l8-18l-10-5v-4l8-9l13-2v-3l-12-1zm-27 61l11 10h5l3-4l-7-1l-6-7l-6-2zm-401-435h3l1 4l6-2l-1 7l3 1v5l-4 1l1 5l-6-1l-1 6h-5l-1-5h-6l3-3l-1-4h-4l2-9l8-1zm839 8l9 3v4h-13zm9 10l5 2l6 13l-13 1l-3-7h-5zm-100 4l9 2l1 5l-5 3l-7-4l-1-4zm28 15l-2 6l-6 1l-2-4h-4l4-7l3-1l3 5zm-32 41h6l4 9l7-3l6 2l1 7l6 3l2 16l-3 7l-11 2l7 14l-5 8l-16 1l-10-4l1-9l-14-8v-12l7-17l11-2zm-64 48h4l14 16l9 5l-4 18l-8 2l3 17l-3 4l-15-3l-6 6l-18-11l1-17l-11-14l2-6l13 2l-2-7l2-3l10 3l2-9zm105 45l8 1l1 7l-11 9l-3 6l2 7l-8 11h-27l-3-8l1-18l-9-1l-2-9l3-3l35 1zm-576 63l9 6v10l-5 11h15l4 10l-14 22l6 14l-18 19l-27 4l-6-2l-4-9l-7-4l5-17l-8-4l-1-8l7-8v-4l-9-13l1-5l8-7l5-2l8 3l13-13zm1143 12l28 18l6 12l-3 6l3 6l-1 7l18 5l2 8l4 43l-5 1l-1 6l-18 7l-2 9l-14 8l-21-5l-9 1l-6-4l-5 3l-1 8l-10-4l-12 6l-2-6l-7-1v-8l-29-8l-5-10l-9-3l-10 1l-5-7h-4l-4 5l-9-3l-13-9l3-12l-4-3l2-4l5-1v-6l4-4l10-3l-1-10l6-6l8-1l1-12l14-1l6-2l3-6l10-1l5 5l19 6l7-9l8 1l5-4l4-8l9 3l6-7l12 1zm-604 127l4 1l15 18l8 2l2 5l-9 4v7l-3 3h-4l-4-6l-5 4l-8-4l1 16l-6 1l-3-3v-18l6-8l10-5l-6-12zm55 5h4l4 5l4 27l-7 5h-11l-10 5l-4-11l5-6v-8l-3-3l9-4z" />
</svg>